<?xml version="1.0" encoding="utf-8"?>
<!-- Generator: Adobe Illustrator 17.1.0, SVG Export Plug-In . SVG Version: 6.00 Build 0)  -->
<!DOCTYPE svg PUBLIC "-//W3C//DTD SVG 1.1//EN" "http://www.w3.org/Graphics/SVG/1.1/DTD/svg11.dtd">
<svg version="1.1" xmlns="http://www.w3.org/2000/svg" xmlns:xlink="http://www.w3.org/1999/xlink" x="0px" y="0px"
	 viewBox="0 0 720 576" enable-background="new 0 0 720 576" xml:space="preserve">
<g id="Layer_1" display="none">
	
		<image display="inline" overflow="visible" width="1128" height="966" xlink:href="../../../../Desktop/Screen Shot 2014-02-26 at 3.10.35 PM.png"  transform="matrix(0.5 0 0 0.5 78 46)">
	</image>
</g>
<g id="Layer_5">
	<path fill="#F7F0F1" d="M232.667,46L270,194.667l3.742,124.996L278.667,388l46,41.333l35.348-10l12.611-51.852
		c0,0-3.958-34.148-3.292-40.814c0,0-0.333-20.562-2.833-32.167c0,0-19.712-85.058-20.686-89.929c0,0-11.814-37.237-6.481-158.571
		H232.667z"/>
	<path fill="#F7F0F1" d="M352.667,46L412,182.5L535.333,364l9.992,3.334c0,0-4.832-30.594-1.078-43.964
		c0,0-8.843-22.865-7.545-42.118c0,0-19.165-56.849-26.267-64.718c0,0-42.654-83.868-44.544-170.535H352.667z"/>
</g>
<g id="Layer_2">
	<path fill="#E4CACE" d="M263.5,254c0,0-17.5,8.5-18,40.5c0,0,5.5,19.5,9,25c0,0,18.5,40.5,16.5,69c0,0-4,29.5-3.5,33.5
		c0,0,8,56,21.5,80.5c0,0,4.5,10,10.5,8c0,0,44,2.029,56,0.264c0,0,6.529-2.264,4.514-12.264c0,0,16.986-69,16.986-74c0,0,4-3,0-24
		c0,0-1.814-21.143-4.314-28.143c0,0-3.686,40.143-31.686,33.643c0,0-57.058-18.397-63.558-73.897c0,0,43.058-50.603,64.558-57.603
		c0,0,21,12,24.5,20c0,0-5.5-26-6.5-28.5c0,0-1.5-18.5-4-27l-6.5-19.5c0,0-7,18-10.5,17c0,0-28.5-17-48.5-17c0,0,19.5-13.5,57-6.5
		l-6-30c0,0-7.5-9.5-74.5,2.5c0,0,7,48.5,2,52.5C269,238,262,250,263.5,254z"/>
	<path fill="#E4CACE" d="M412,182.5l-9,17l4.5,10L415,227c0,0-7,6.5-6,28c0,0-6.5,8.5,0,21c0,0,9.5,27.5,14,31.5
		c0,0,6.5,18.5,5,21.5c0,0,0.5,19.5,10.5,25c0,0,16.5,18.5,7,38c0,0-13,20,5,85.5l5,20.5c0,0,1.5,10.5,11.5,10.5c0,0,40,4.5,49.5,0
		c0,0,6-4,5-7.5c0,0,18-36.5,19-61c0,0,2.5-1,6-10.5c0,0,9-4,2.5-33.5l-7.5-58.5l-2-11.5c0,0,4.5-2,4.5,1c0,0,1.5-14-2-22
		c0,0-12-13.475-17.5-17.488h12c0,0,2-13.512-5.5-27.512l-4,15l-12.5,1.5c0,0-21.833-20.167-31.833-33.167
		c0,0-15-16.833-35.667-22.833c0,0-7.5-5.5-9-5c0,0,11-10,23-4c0,0,24,8.5,32,8.5c0,0,23,9.5,27,15c0,0-14.5-23-21-52.5
		c0,0-31.5-18-75.5,12.5L412,182.5z"/>
</g>
<g id="Layer_6">
	<path fill="none" stroke="#D7B1B7" stroke-width="2" stroke-miterlimit="10" d="M269.75,214.667l20.917,4.667
		c0,0,50.847,8.282,68.18,35.615"/>
	<path fill="none" stroke="#D7B1B7" stroke-width="2" stroke-miterlimit="10" d="M290.667,219.333c0,0,31.358-14.552,56.025-6.552
		l1.975,7.441c0,0-2.026,10.788-8.917,16.528"/>
	<path fill="none" stroke="#D7B1B7" stroke-width="2" stroke-miterlimit="10" d="M269.75,311.375c0,0,21.583-48.708,40.917-54.708
		c0,0,28,13.854,32.667,18.26c0,0-16.691,0.985-66.208,57.948"/>
	<path fill="none" stroke="#D7B1B7" stroke-width="2" stroke-miterlimit="10" d="M265.554,244.804c0,0,39.516,9.045,45.113,11.862
		c5.596,2.817,48.626,22.088,56.626,37.711"/>
</g>
<g id="Layer_3">
	<path fill="#B5949A" d="M414.598,290.961c0,0,11.402-26.961,35.902-10.961c0,0,9,4,17.5,22.5c0,0,15,5.5,13,23c0,0,42,64,35.5,98
		c0,0-4.5,45.5-20.5,47c0,0-15,5.5-36,0c0,0-15.5-24-11-53c0,0,3.5-41.5,7-54.5c0,0,3-26.5-10.5-38L423,307.5L414.598,290.961z"/>
</g>
<g id="Layer_4">
	<path fill="#D2A8AE" d="M261.578,254.319c0,0-1.578,23.287,5.422,43.287c0,0,11.436,38.576,16.1,49.465c0,0,9.9,38.035,57.9,58.035
		c0,0,26.099,8.381,31.625-37.625l3.251,18.019c0,0-3.876,35.606-35.376,29.606c0,0-23.97,2.78-53-42.064
		c0,0-39.72-81.055-31.61-113.245L261.578,254.319z"/>
	<path fill="#D2A8AE" d="M450,222c0,0,52.667,38.667,70,80c0,0,23.333,48,24.667,71.333c0,0-2.796-37.369-4.129-41.369
		c0,0,7.129-35.187-80.537-109.965C460,222,455.333,218,450,222z"/>
</g>
</svg>
